<?xml version="1.0" encoding="UTF-8"?>
<!DOCTYPE svg PUBLIC "-//W3C//DTD SVG 1.1//EN" "http://www.w3.org/Graphics/SVG/1.1/DTD/svg11.dtd">
<!-- Creator: CorelDRAW -->
<svg xmlns="http://www.w3.org/2000/svg" xml:space="preserve" width="108.655mm" height="20.1451mm" version="1.1" style="shape-rendering:geometricPrecision; text-rendering:geometricPrecision; image-rendering:optimizeQuality; fill-rule:evenodd; clip-rule:evenodd"
viewBox="0 0 3443.52 638.44"
 xmlns:xlink="http://www.w3.org/1999/xlink"
 xmlns:xodm="http://www.corel.com/coreldraw/odm/2003">
 <defs>
  <style type="text/css">
   <![CDATA[
    .str0 {stroke:#FEFEFE;stroke-width:6.34;stroke-miterlimit:22.9256}
    .fil1 {fill:#FF5E00}
    .fil0 {fill:#FEFEFE;fill-rule:nonzero}
   ]]>
  </style>
 </defs>
 <g id="Слой_x0020_1">
  <metadata id="CorelCorpID_0Corel-Layer"/>
  <path class="fil0" d="M836.24 255.94c-2.88,0 -5.76,0.16 -8.65,0.48 -2.88,0.32 -5.61,1.76 -8.16,4.32 -2.56,2.56 -4.01,5.28 -4.33,8.17 -0.32,2.88 -0.49,5.93 -0.48,9.12l1.2 235.5 -109.75 -94.03 0 -195.75c0,-5.44 0.8,-11.13 2.4,-17.05 1.6,-5.92 5.12,-11.61 10.57,-17.05 7.68,-7.68 16.01,-12 24.97,-12.97 8.97,-0.96 17.45,-1.44 25.46,-1.44l210.39 0c9.93,0 18.89,0.64 26.9,1.92 8,1.28 15.53,5.44 22.57,12.48 5.44,5.45 8.97,11.13 10.57,17.05 1.6,5.92 2.4,11.61 2.4,17.05l0 287.72 -108.55 0 0 -233.44c0,-2.88 -0.16,-5.84 -0.48,-8.89 -0.32,-3.04 -1.76,-5.84 -4.32,-8.4 -2.56,-2.56 -5.2,-4 -7.92,-4.32 -2.73,-0.32 -5.69,-0.48 -8.89,-0.48l-75.89 0zm373.23 87.42c0,13.45 0.72,25.38 2.16,35.78 1.44,10.4 4.88,19.78 10.33,28.1 3.52,5.44 7.44,9.85 11.77,13.21 4.32,3.37 8.97,5.84 13.93,7.45 4.96,1.6 10.41,2.64 16.33,3.12 5.92,0.48 12.25,0.72 18.97,0.72 7.05,0 13.53,-0.23 19.46,-0.72 5.92,-0.48 11.29,-1.52 16.09,-3.12 4.8,-1.61 9.29,-4.09 13.45,-7.45 4.16,-3.36 8.16,-7.76 12,-13.21 6.09,-8.97 9.69,-18.49 10.81,-28.58 1.12,-10.08 1.68,-21.85 1.68,-35.3 0,-7.37 -0.08,-13.93 -0.24,-19.69 -0.16,-5.76 -0.56,-11.13 -1.2,-16.09 -0.64,-4.97 -1.84,-9.69 -3.6,-14.17 -1.76,-4.48 -4.24,-9.12 -7.45,-13.93 -7.36,-10.89 -15.85,-17.69 -25.46,-20.42 -9.61,-2.72 -21.46,-4.08 -35.55,-4.08 -7.04,0 -13.45,0.24 -19.21,0.72 -5.76,0.48 -11.21,1.6 -16.33,3.36 -5.12,1.76 -9.76,4.24 -13.93,7.44 -4.16,3.2 -8.01,7.53 -11.53,12.97 -6.08,8.97 -9.69,18.33 -10.81,28.1 -1.12,9.77 -1.68,21.7 -1.68,35.78zm73.49 -171.96c12.81,0 25.94,0.24 39.39,0.72 13.45,0.48 26.66,1.84 39.63,4.09 12.97,2.24 25.3,5.68 36.98,10.33 11.69,4.65 22.02,11.12 30.98,19.45 8.97,8.33 16.01,18.09 21.13,29.3 5.12,11.21 8.97,22.9 11.53,35.07 2.56,12.17 4.08,24.58 4.56,37.23 0.48,12.65 0.72,24.58 0.72,35.78 0,11.21 -0.24,23.06 -0.72,35.55 -0.48,12.49 -2,24.81 -4.56,36.98 -2.56,12.17 -6.4,23.86 -11.53,35.07 -5.12,11.21 -12.17,21.13 -21.13,29.78 -8.97,8.33 -19.29,14.81 -30.98,19.45 -11.68,4.64 -24.02,8.08 -36.98,10.33 -12.97,2.24 -26.26,3.6 -39.87,4.08 -13.61,0.48 -26.66,0.72 -39.15,0.72 -12.49,0 -25.54,-0.24 -39.15,-0.72 -13.61,-0.48 -26.9,-1.84 -39.87,-4.08 -12.97,-2.24 -25.3,-5.68 -36.98,-10.33 -11.69,-4.65 -22.02,-11.13 -30.98,-19.45 -9.29,-8.65 -16.41,-18.57 -21.37,-29.78 -4.96,-11.21 -8.72,-22.9 -11.29,-35.07 -2.56,-12.17 -4.08,-24.49 -4.56,-36.98 -0.48,-12.49 -0.72,-24.34 -0.72,-35.55 0,-11.21 0.24,-23.14 0.72,-35.78 0.48,-12.65 2,-25.06 4.56,-37.23 2.56,-12.17 6.33,-23.86 11.29,-35.07 4.96,-11.2 12.09,-20.97 21.37,-29.3 8.97,-8.33 19.29,-14.81 30.98,-19.45 11.69,-4.65 24.01,-8.08 36.98,-10.33 12.97,-2.24 26.18,-3.6 39.62,-4.09 13.45,-0.48 26.58,-0.72 39.39,-0.72zm354.01 256.5l118.16 0 -53.79 -146.02c-0.64,-1.6 -1.28,-3.44 -1.92,-5.52 -0.64,-2.08 -1.76,-3.12 -3.36,-3.12 -1.6,0 -2.72,1.04 -3.36,3.12 -0.64,2.09 -1.28,3.93 -1.92,5.52l-53.79 146.02zm-18.25 -218.55c1.6,-4.16 3.92,-8.49 6.96,-12.97 3.04,-4.48 7.37,-8.56 12.97,-12.25 5.6,-3.69 13.05,-6.72 22.34,-9.13 9.29,-2.4 20.97,-3.6 35.06,-3.6 14.09,0 25.78,1.2 35.06,3.6 9.29,2.41 16.73,5.44 22.33,9.13 5.6,3.69 9.93,7.77 12.97,12.25 3.04,4.48 5.36,8.81 6.97,12.97l90.3 218.55 33.62 0 0 83.58 -402.51 0 0 -83.58 33.14 0 90.78 -218.55zm416.94 134.01c0,13.45 0.72,25.38 2.16,35.78 1.44,10.4 4.88,19.78 10.33,28.1 3.52,5.44 7.44,9.85 11.77,13.21 4.32,3.37 8.96,5.84 13.93,7.45 4.96,1.6 10.41,2.64 16.33,3.12 5.93,0.48 12.25,0.72 18.97,0.72 7.05,0 13.53,-0.23 19.45,-0.72 5.92,-0.48 11.29,-1.52 16.09,-3.12 4.8,-1.61 9.29,-4.09 13.45,-7.45 4.16,-3.36 8.16,-7.76 12,-13.21 6.08,-8.97 9.69,-18.49 10.81,-28.58 1.12,-10.08 1.68,-21.85 1.68,-35.3 0,-7.37 -0.08,-13.93 -0.24,-19.69 -0.16,-5.76 -0.56,-11.13 -1.2,-16.09 -0.64,-4.97 -1.84,-9.69 -3.6,-14.17 -1.76,-4.48 -4.24,-9.12 -7.44,-13.93 -7.36,-10.89 -15.85,-17.69 -25.46,-20.42 -9.61,-2.72 -21.46,-4.08 -35.55,-4.08 -7.04,0 -13.45,0.24 -19.21,0.72 -5.76,0.48 -11.21,1.6 -16.33,3.36 -5.12,1.76 -9.77,4.24 -13.93,7.44 -4.16,3.2 -8.01,7.53 -11.53,12.97 -6.08,8.97 -9.69,18.33 -10.81,28.1 -1.12,9.77 -1.68,21.7 -1.68,35.78zm73.49 -171.96c12.81,0 25.94,0.24 39.39,0.72 13.45,0.48 26.66,1.84 39.63,4.09 12.97,2.24 25.3,5.68 36.98,10.33 11.69,4.65 22.02,11.12 30.98,19.45 8.97,8.33 16.01,18.09 21.14,29.3 5.12,11.21 8.97,22.9 11.53,35.07 2.56,12.17 4.08,24.58 4.56,37.23 0.48,12.65 0.72,24.58 0.72,35.78 0,11.21 -0.24,23.06 -0.72,35.55 -0.48,12.49 -2,24.81 -4.56,36.98 -2.56,12.17 -6.4,23.86 -11.53,35.07 -5.12,11.21 -12.17,21.13 -21.14,29.78 -8.96,8.33 -19.29,14.81 -30.98,19.45 -11.68,4.64 -24.01,8.08 -36.98,10.33 -12.97,2.24 -26.26,3.6 -39.87,4.08 -13.61,0.48 -26.66,0.72 -39.15,0.72 -12.49,0 -25.54,-0.24 -39.15,-0.72 -13.61,-0.48 -26.9,-1.84 -39.87,-4.08 -12.97,-2.24 -25.3,-5.68 -36.99,-10.33 -11.69,-4.65 -22.01,-11.13 -30.98,-19.45 -9.28,-8.65 -16.41,-18.57 -21.37,-29.78 -4.97,-11.21 -8.73,-22.9 -11.29,-35.07 -2.56,-12.17 -4.09,-24.49 -4.56,-36.98 -0.48,-12.49 -0.72,-24.34 -0.72,-35.55 0,-11.21 0.24,-23.14 0.72,-35.78 0.48,-12.65 2,-25.06 4.56,-37.23 2.56,-12.17 6.32,-23.86 11.29,-35.07 4.96,-11.2 12.09,-20.97 21.37,-29.3 8.97,-8.33 19.29,-14.81 30.98,-19.45 11.69,-4.65 24.02,-8.08 36.99,-10.33 12.97,-2.24 26.17,-3.6 39.62,-4.09 13.45,-0.48 26.58,-0.72 39.39,-0.72zm317.03 34.59c3.52,-8.01 8.33,-14.33 14.41,-18.97 6.08,-4.65 12.57,-8.17 19.45,-10.57 6.89,-2.4 13.77,-3.84 20.66,-4.32 6.88,-0.48 12.89,-0.72 18.01,-0.72 5.12,0 11.13,0.24 18.01,0.72 6.89,0.48 13.77,1.92 20.66,4.32 6.88,2.41 13.37,5.93 19.45,10.57 6.08,4.64 10.89,10.97 14.41,18.97l129.21 305.49 -115.28 0 -81.18 -222.39c-0.64,-0.96 -1.36,-2.56 -2.16,-4.8 -0.8,-2.24 -1.84,-3.37 -3.12,-3.37 -1.28,0 -2.32,1.12 -3.12,3.37 -0.8,2.24 -1.52,3.84 -2.16,4.8l-81.18 222.39 -115.28 0 129.21 -305.49zm556.71 305.49l4.8 -197.42c0,-3.2 -0.16,-6.08 -0.48,-8.65 -0.32,-2.56 -1.76,-3.84 -4.32,-3.84 -1.6,0 -3.2,1.36 -4.8,4.08 -1.6,2.72 -4.16,6.81 -7.69,12.25l-95.59 163.31c-2.24,3.84 -5.12,7.85 -8.65,12 -3.52,4.16 -8.08,7.85 -13.69,11.05 -5.6,3.2 -12.49,5.84 -20.65,7.92 -8.16,2.09 -18.01,3.12 -29.54,3.12 -16.65,0 -29.86,-2.32 -39.63,-6.97 -9.77,-4.64 -17.29,-10.72 -22.57,-18.25 -5.29,-7.52 -8.73,-16.09 -10.33,-25.69 -1.6,-9.61 -2.4,-19.54 -2.4,-29.78l0 -259.38 110.48 0 -4.81 192.61 0 5.29c0,2.24 0.24,4.72 0.72,7.44 0.48,2.72 2.16,4.08 5.04,4.08 1.6,0 3.04,-1.04 4.32,-3.12 1.28,-2.08 3.04,-5.04 5.28,-8.88l92.71 -161.87c5.12,-9.28 10.89,-16.57 17.29,-21.85 6.41,-5.29 12.89,-9.21 19.46,-11.77 6.56,-2.57 12.97,-4.16 19.21,-4.81 6.24,-0.64 11.77,-0.96 16.57,-0.96 19.21,0 34.18,3.05 44.91,9.13 10.73,6.09 18.65,13.45 23.78,22.09 5.12,8.65 8.25,17.77 9.37,27.39 1.12,9.61 1.68,17.77 1.68,24.49l0 256.98 -110.47 0zm311.74 0c-13.13,0 -25.22,-0.56 -36.27,-1.68 -11.05,-1.13 -21.21,-3.21 -30.5,-6.25 -9.29,-3.05 -17.93,-7.21 -25.94,-12.49 -8.01,-5.28 -15.37,-12.25 -22.09,-20.89 -5.12,-6.08 -9.61,-12.89 -13.45,-20.41 -3.84,-7.53 -7.05,-16.17 -9.61,-25.93 -2.56,-9.77 -4.48,-20.89 -5.76,-33.38 -1.28,-12.49 -1.92,-26.74 -1.92,-42.75 0,-28.18 1.84,-52.83 5.52,-73.97 3.69,-21.13 11.61,-39.38 23.78,-54.76 7.69,-9.93 16.33,-17.77 25.94,-23.53 9.61,-5.76 19.61,-10.16 30.02,-13.21 10.41,-3.04 20.89,-4.96 31.46,-5.76 10.57,-0.8 20.65,-1.19 30.26,-1.19l142.18 0 0 83.57 -89.82 0c-8.97,0 -17.29,0.09 -24.98,0.24 -7.69,0.16 -14.73,1.12 -21.14,2.88 -6.4,1.76 -12.17,4.41 -17.29,7.93 -5.12,3.52 -9.61,8.65 -13.45,15.37 -2.56,4.16 -4.56,8.88 -6.01,14.17 -1.44,5.29 -2.48,10.73 -3.12,16.33 -0.64,5.6 -1.12,10.97 -1.44,16.09 -0.32,5.12 -0.48,9.76 -0.48,13.93 0,9.29 0.32,17.13 0.96,23.54 0.64,6.4 1.36,11.77 2.16,16.09 0.8,4.32 1.68,7.76 2.64,10.33 0.96,2.56 1.76,4.48 2.41,5.76 3.52,6.72 8.08,11.84 13.69,15.36 5.6,3.52 11.93,6.09 18.97,7.69 7.05,1.6 14.73,2.56 23.06,2.88 8.33,0.32 16.97,0.48 25.94,0.48l93.18 0 0 83.58 -148.9 0z"/>
  <path class="fil0 str0" d="M712.65 107.24l-6.58 0 0 -69.72 60.66 0 0 69.72 -6.58 0 0 -63.73 -47.5 0 0 63.73zm90.77 -13.01c5.94,5.75 13.16,8.63 21.63,8.63 8.58,0 15.74,-2.87 21.48,-8.63 5.85,-5.84 8.77,-13.11 8.77,-21.78 0,-8.67 -2.93,-15.93 -8.77,-21.78 -5.75,-5.85 -12.91,-8.77 -21.48,-8.77 -8.58,0 -15.79,2.92 -21.63,8.77 -5.75,5.94 -8.62,13.2 -8.62,21.78 0,8.58 2.87,15.84 8.62,21.78zm48.23 4.09c-6.82,7.11 -15.69,10.67 -26.6,10.67 -11.01,0 -19.93,-3.56 -26.75,-10.67 -6.82,-7.11 -10.23,-15.74 -10.23,-25.87 0,-10.13 3.41,-18.75 10.23,-25.86 6.92,-7.21 15.83,-10.82 26.75,-10.82 10.81,0 19.68,3.6 26.6,10.82 6.92,7.21 10.38,15.83 10.38,25.86 0,10.04 -3.46,18.66 -10.38,25.87zm25.29 30.7l-6.43 0 0 -27.77 8.63 0c8.87,-10.91 13.3,-29.33 13.3,-55.25l0.15 -8.48 49.11 0 0 63.73 13.45 0 0 27.77 -6.43 0 0 -21.78 -71.77 0 0 21.78zm9.79 -27.77l48.38 0 0 -57.73 -36.25 0 0 4.97c0,23.09 -4.04,40.68 -12.13,52.76zm96.61 -7.02c5.95,5.75 13.16,8.63 21.64,8.63 8.57,0 15.74,-2.87 21.48,-8.63 5.84,-5.84 8.77,-13.11 8.77,-21.78 0,-8.67 -2.93,-15.93 -8.77,-21.78 -5.75,-5.85 -12.91,-8.77 -21.48,-8.77 -8.58,0 -15.79,2.92 -21.64,8.77 -5.75,5.94 -8.62,13.2 -8.62,21.78 0,8.58 2.87,15.84 8.62,21.78zm48.24 4.09c-6.82,7.11 -15.69,10.67 -26.6,10.67 -11.01,0 -19.93,-3.56 -26.75,-10.67 -6.82,-7.11 -10.23,-15.74 -10.23,-25.87 0,-10.13 3.41,-18.75 10.23,-25.86 6.92,-7.21 15.83,-10.82 26.75,-10.82 10.81,0 19.68,3.6 26.6,10.82 6.92,7.21 10.38,15.83 10.38,25.86 0,10.04 -3.46,18.66 -10.38,25.87zm39.03 -38.44l0.59 -22.37 49.11 0 0 69.72 -6.58 0 0 -63.73 -36.1 0 -0.44 14.76c-0.1,6.72 -0.49,12.71 -1.17,17.98 -0.59,4.97 -1.66,9.99 -3.22,15.05 -3.12,10.72 -9.6,16.08 -19.44,16.08 -1.26,0 -2.15,-0.04 -2.63,-0.14l0 -6.14c0.48,0.1 1.46,0.15 2.93,0.15 6.72,0 11.21,-4.53 13.44,-13.59 1.85,-7.12 3.02,-16.37 3.51,-27.77zm86.38 34.35c5.94,5.75 13.16,8.63 21.63,8.63 8.58,0 15.74,-2.87 21.49,-8.63 5.84,-5.84 8.77,-13.11 8.77,-21.78 0,-8.67 -2.93,-15.93 -8.77,-21.78 -5.75,-5.85 -12.91,-8.77 -21.49,-8.77 -8.58,0 -15.79,2.92 -21.63,8.77 -5.75,5.94 -8.62,13.2 -8.62,21.78 0,8.58 2.87,15.84 8.62,21.78zm48.23 4.09c-6.82,7.11 -15.69,10.67 -26.6,10.67 -11.01,0 -19.93,-3.56 -26.75,-10.67 -6.82,-7.11 -10.23,-15.74 -10.23,-25.87 0,-10.13 3.41,-18.75 10.23,-25.86 6.92,-7.21 15.83,-10.82 26.75,-10.82 10.81,0 19.68,3.6 26.6,10.82 6.92,7.21 10.38,15.83 10.38,25.86 0,10.04 -3.46,18.66 -10.38,25.87zm38.15 8.92l-6.58 0 0 -69.72 51.01 0 0 6 -44.44 0 0 63.73zm69.87 0l-6.14 0 0 -69.72 6.58 0 0 59.78 49.99 -59.78 5.99 0 0 69.72 -6.58 0 0 -59.64 -49.84 59.64zm85.36 0l-7.89 0 22.07 -28.51c-6.14,-0.58 -10.91,-2.7 -14.32,-6.35 -3.41,-3.65 -5.12,-8.4 -5.12,-14.26 0,-6.23 2.12,-11.23 6.36,-14.97 4.24,-3.76 10.11,-5.63 17.61,-5.63l35.22 0 0 69.72 -6.58 0 0 -27.63 -26.16 0 -21.2 27.63zm19.59 -33.62l27.77 0 0 -30.1 -27.77 0c-5.75,0 -10.2,1.31 -13.37,3.94 -3.17,2.63 -4.75,6.34 -4.75,11.11 0,4.68 1.58,8.36 4.75,11.04 3.17,2.68 7.63,4.02 13.37,4.02zm275.34 35.37c-8.58,0 -16.03,-2.05 -22.37,-6.14l0 -6.58c6.34,4.38 13.55,6.58 21.63,6.58 8.48,0 15.54,-2.63 21.19,-7.89 5.95,-5.27 9.11,-11.89 9.5,-19.88l-37.12 0 0 -6 37.12 0c-0.68,-7.69 -3.95,-14.18 -9.79,-19.43 -5.75,-5.17 -12.71,-7.75 -20.9,-7.75 -6.82,0 -13.54,1.84 -20.17,5.55l0 -6.28c5.94,-3.61 12.91,-5.41 20.9,-5.41 10.72,0 19.49,3.55 26.31,10.66 6.92,7.21 10.38,15.84 10.38,25.87 0,10.14 -3.46,18.8 -10.38,26.02 -6.82,7.11 -15.59,10.67 -26.31,10.67zm89.45 0c-10.72,0 -19.49,-3.56 -26.31,-10.67 -6.92,-7.21 -10.38,-15.88 -10.38,-26.02 0,-10.04 3.46,-18.66 10.38,-25.87 6.82,-7.11 15.64,-10.66 26.46,-10.66 7.8,0 14.81,1.8 21.05,5.41l0 6.43c-6.53,-3.8 -13.3,-5.7 -20.32,-5.7 -8.77,0 -16.12,2.92 -22.07,8.77 -5.84,5.84 -8.77,13.1 -8.77,21.78 0,8.67 2.92,15.94 8.77,21.78 6.04,5.75 13.4,8.63 22.07,8.63 8.19,0 15.4,-2.2 21.63,-6.58l0 6.58c-6.14,4.09 -13.64,6.14 -22.51,6.14zm68.11 -1.75l-6.58 0 0 -63.73 -26.61 0 0 -6 59.78 0 0 6 -26.6 0 0 63.73zm74.4 1.75c-11.01,0 -20.07,-3.41 -27.19,-10.23 -7.21,-6.92 -10.81,-15.68 -10.81,-26.31 0,-10.52 3.21,-19.24 9.65,-26.16 6.43,-7.02 14.76,-10.52 24.99,-10.52 5.75,0 10.82,1.14 15.2,3.43 4.39,2.29 7.75,5.38 10.08,9.28 4.58,7.31 6.87,14.86 6.87,22.65l0 2.19 -60.22 0c0.2,8.87 3.26,15.98 9.21,21.34 6.04,5.46 13.74,8.19 23.09,8.19 8.38,0 15.88,-2.2 22.51,-6.58l0 6.43c-5.45,4.19 -13.25,6.29 -23.39,6.29zm-31.28 -41.36l53.49 0c0,-2.73 -0.49,-5.5 -1.46,-8.33 -0.98,-2.82 -2.41,-5.58 -4.31,-8.26 -1.9,-2.67 -4.6,-4.87 -8.11,-6.58 -3.51,-1.71 -7.45,-2.55 -11.84,-2.55 -8.19,0 -14.76,2.63 -19.73,7.89 -4.97,5.26 -7.65,11.2 -8.04,17.83zm103.04 39.61l-6.58 0 0 -63.73 -26.6 0 0 -6 59.78 0 0 6 -26.6 0 0 63.73zm50.13 0l-6.14 0 0 -69.72 6.58 0 0 59.78 49.99 -59.78 5.99 0 0 69.72 -6.58 0 0 -59.64 -49.84 59.64zm89.45 0l-6.58 0 0 -69.72 6.58 0 0 29.38 36.68 -29.38 9.65 0 -39.32 31.57 44.58 38.15 -9.94 0 -41.65 -35.66 0 35.66zm90.18 -4.38c5.56,0 10.77,-1.32 15.64,-3.95 4.87,-2.63 8.82,-5.94 11.84,-9.94l0 -11.54c-8.38,-5.46 -16.9,-8.19 -25.58,-8.19 -7.31,0 -13.11,1.53 -17.39,4.6 -4.29,3.07 -6.43,7.14 -6.43,12.21 0,5.45 2.05,9.62 6.14,12.5 4.09,2.87 9.36,4.31 15.79,4.31zm-1.9 6.14c-7.21,0 -13.55,-2 -19,-5.99 -5.26,-4.09 -7.89,-9.7 -7.89,-16.81 0,-6.92 2.73,-12.43 8.18,-16.51 5.46,-4.19 12.38,-6.28 20.76,-6.28 9.94,0 19.05,2.53 27.33,7.6l0 -9.2c0,-13.26 -8.28,-19.88 -24.85,-19.88 -8.38,0 -16.27,2.48 -23.68,7.45l0 -6.73c7.11,-4.58 15.39,-6.87 24.85,-6.87 9.36,0 16.73,2.16 22.14,6.5 5.41,4.34 8.11,10.65 8.11,18.93l0 30.99c0,3.02 0.68,5.44 2.04,7.24 1.37,1.8 3.22,2.7 5.56,2.7 1.56,0 2.92,-0.29 4.09,-0.88l0 5.41c-1.36,0.78 -3.26,1.17 -5.7,1.17 -3.32,0 -6.07,-1.05 -8.26,-3.14 -2.19,-2.09 -3.44,-5.09 -3.73,-8.99 -7.6,8.87 -17.59,13.3 -29.96,13.3zm-640.11 -97.64l0 7.45c-7.41,-6.34 -15.4,-9.5 -23.97,-9.5 -6.63,0 -11.91,1.61 -15.86,4.82 -3.95,3.21 -5.92,7.6 -5.92,13.15 0,7.02 3.99,14.38 11.98,22.08l38.44 36.83c6.34,-8.96 9.7,-20.02 10.08,-33.18l6.58 0c-0.39,14.71 -4.43,27.28 -12.13,37.71l17.39 16.51 -9.21 0 -12.28 -11.69c-8.67,8.96 -19.73,13.44 -33.18,13.44 -9.75,0 -18.37,-2.87 -25.87,-8.63 -7.31,-5.85 -10.96,-13.78 -10.96,-23.82 0,-7.5 2.15,-13.84 6.43,-19 4.29,-5.07 8.97,-8.58 14.03,-10.53 -5.36,-6.24 -8.04,-12.86 -8.04,-19.88 0,-7.21 2.63,-13.01 7.89,-17.39 5.26,-4.39 11.79,-6.58 19.59,-6.58 9.74,0 18.07,2.73 25,8.19zm-28.06 91.5c11.49,0 21.04,-3.9 28.64,-11.69l-40.78 -39.32c-4.68,1.46 -8.87,4.39 -12.57,8.78 -3.6,4.29 -5.41,9.6 -5.41,15.93 0,7.89 2.87,14.28 8.62,19.15 5.65,4.78 12.82,7.17 21.49,7.17z"/>
  <polygon class="fil0" points="2888.09,126.94 2932.39,52.82 2976.97,79.46 2928.05,150.68 "/>
  <path class="fil1" d="M706.07 401.5c-30.87,-15.33 -61.54,-21.64 -92.47,-23.47 2.47,-15.72 3.76,-31.84 3.76,-48.26 0,-170.48 -138.2,-308.68 -308.68,-308.68 -170.48,0 -308.68,138.2 -308.68,308.68 -0,170.48 138.2,308.68 308.68,308.68 0.73,0 1.45,-0.02 2.17,-0.03 88.99,0.96 194.62,-26.65 272.95,-49.19 91.9,-26.45 112.79,-30.63 164.31,-29.24 51.52,1.39 104.44,23.66 104.44,23.66 0,0 -14.66,-35.27 -37.93,-74.02 -17.3,-28.81 -39.37,-59.55 -63.72,-79.15 -15.03,-12.09 -29.95,-21.59 -44.83,-28.98zm-32.11 135.5c59.18,-63.36 7.66,-114.19 7.66,-114.19 8.81,3.97 16.94,8.11 24.45,12.38 45.08,25.61 67.54,55.53 78.48,76.28 8.04,15.24 9.86,25.53 9.86,25.53 -58.14,-20.19 -120.45,0 -120.45,0zm-70.45 -159.51c0,0 -10.46,-0.64 -31.76,2.18 -148.07,19.59 -281.97,136.44 -375.21,23.82 -44.53,-53.8 -30.46,-130.82 24.61,-149.55 8.03,-2.73 26.3,-6.32 35.93,-2.65 -3.11,0.9 -16.59,12.33 -20.39,16.01 -23,22.33 -34.47,62.75 -23.53,82.47 2.74,-22.03 2.49,-30.79 15.99,-46.96 9.36,-11.23 19.41,-19.01 29.88,-27.62 34.88,-28.74 13.86,-61.45 -11.59,-68.72 -85.53,-24.41 -150.45,90.28 -90.55,195.1 5.66,9.92 15.85,21.58 25.16,31.48 18.53,19.68 49.92,41.34 46.56,66.33 -4.18,31.16 -60.86,36.15 -92.98,-37.21 -21.58,-49.31 -36.86,-113.21 -17.24,-182.21 18.42,-64.78 59.74,-105.72 122.89,-106.46 50,-0.59 73.81,23.21 82.23,42.72 12.93,29.96 -21.33,74.25 -48.82,101.7 -33.57,33.52 -7.75,85.57 57.86,75.05 86.94,-13.94 100.14,-82.7 201.42,-88.97 72.46,-4.5 69.54,73.49 69.54,73.49zm-186.12 -214.15c0.5,31.13 -31.76,66.29 -54.34,53.6 -19.84,-11.15 -10.44,-54.38 15.95,-72.42 5.71,-3.9 17.47,-9.05 26.76,-3.66 8.6,4.99 11.46,11.79 11.63,22.48zm-73.36 -65.87c28.44,16.05 -3.02,85.33 -32.22,69.12 -13.93,-7.74 -11.61,-32.79 -4.83,-47.2 6.1,-12.96 21.82,-30.52 37.05,-21.92zm-59.23 24.49c-3,14.9 -13.61,29.84 -25.79,29.59 -14.84,-0.3 -19.24,-19.74 -16.45,-33.7 9.05,-45.13 50.72,-37.94 42.23,4.11zm-68.88 -19.24c21.62,12.72 9.43,62.59 -12.82,52.03 -8.75,-4.15 -12.72,-18.8 -10.69,-31.4 1.98,-12.26 11.51,-27.69 23.51,-20.63zm-43.87 32.82c18.76,12.48 9.57,51.64 -8.49,39.74 -17.11,-11.29 -10.16,-52.15 8.49,-39.74z"/>
 </g>
</svg>
